<svg width="82" height="100" xmlns="http://www.w3.org/2000/svg"><defs><linearGradient x1=".772" y1=".797" x2=".896" y2=".531" id="a"><stop offset="0" stop-color="#F4E9B0"/><stop offset="1" stop-color="#FFFBE5"/></linearGradient><linearGradient x1=".778" y1=".5" x2=".111" y2="1" id="b"><stop offset="0" stop-color="#F4E9B0"/><stop offset="1" stop-color="#FFFBE5"/></linearGradient><linearGradient x1=".22" y1=".042" x2=".974" y2=".523" id="c"><stop offset="0" stop-color="#F4E9B0"/><stop offset="1" stop-color="#FFFBE5"/></linearGradient><linearGradient x1=".432" y1=".744" x2=".5" y2=".5" id="d"><stop offset="0" stop-color="#BD0000"/><stop offset="1" stop-color="#FF0909"/></linearGradient><linearGradient x1=".714" y1=".33" x2=".5" y2="1.423" id="e"><stop offset="0" stop-color="#F4E9B0"/><stop offset="1" stop-color="#FFFBE5"/></linearGradient><linearGradient x1=".551" y1=".809" x2=".551" y2=".331" id="f"><stop offset="0" stop-color="#F4E9B0"/><stop offset="1" stop-color="#FFFBE5"/></linearGradient><linearGradient x1=".455" y1=".667" x2=".5" y2="0" id="g"><stop offset="0" stop-color="#BD0000"/><stop offset="1" stop-color="#FF0909"/></linearGradient><linearGradient x1=".271" y1=".145" x2=".294" y2="1" id="j"><stop offset="0" stop-color="#003E8C"/><stop offset="1" stop-color="#0062DB"/></linearGradient><linearGradient x1=".099" y1="0" x2=".877" y2="1.001" id="k"><stop offset="0" stop-color="#003E8C"/><stop offset="1" stop-color="#0062DB"/></linearGradient><linearGradient x1=".312" y1=".095" x2=".75" y2=".995" id="l"><stop offset="0" stop-color="#003E8C"/><stop offset="1" stop-color="#0062DB"/></linearGradient><radialGradient gradientUnits="objectBoundingBox" cx="39.698%" cy="24.491%" fx="39.698%" fy="24.491%" r="408.941%" gradientTransform="matrix(.6124 -.555 .79055 .42992 -.04 .36)" id="h"><stop offset="0%" stop-color="#BD0000"/><stop offset="100%" stop-color="#FF0909"/></radialGradient><radialGradient gradientUnits="objectBoundingBox" cx="39.654%" cy="24.549%" fx="39.654%" fy="24.549%" r="54.474%" gradientTransform="matrix(.99957 .02065 -.0294 .70173 .007 .065)" id="i"><stop offset="0%" stop-color="#BD0000"/><stop offset="100%" stop-color="#FF0909"/></radialGradient></defs><path d="m3.895 85.16 35.787 5.984 3.435 5.985 4.338-4.488 8.675 1.309-.361 5.798 3.253-3.74L63 98.063l.723-1.87 6.868 2.057c5.543-.436 8.013-3.304 11.207-5.797L9.137 78.8l-5.24 6.358h-.002Z" fill-opacity=".769"/><path d="m44.795 90.513 28.583 8.237c4.616 0 11.508-6.03 6.892-10.8l-27.697-7.154c-1.47 7.493-4.992 7.217-7.78 9.718h.002Z" fill="url(#a)"/><path d="M80.823 88.277c-6.06-1.775-12.118-3.625-18.177-4.489l-2.272 4.489 13.633 4.488c-.484-4.218 3.098-4.42 6.816-4.488Z" fill="url(#b)"/><path d="M5.92 0c17.676 1.333 40.517 1.115 66.34 0 11.437.158 5.384 32.985 1.502 49.268-5.17 21.686-12.94 42.282-1.503 49.482-21.68-.361-42.027-1.838-66.339 0-11.438-5.903-3.406-24.458.14-50.71C7.953 34.025 19.645 6.492 5.92 0Z" fill="url(#c)"/><path d="M50.623 79.8c-.79-.206-13.62 12.82-13.62 12.82l5.132-.827.198 4.962 9.277-14.68-.987-2.274Z" fill="url(#d)"/><path d="M68.86 26.858c3.947.135 6.615.666 7.094-5.27-5.921.47-11.073-1.633-16.554-2.636l9.46 7.906Z" fill="url(#e)"/><path d="M6.031.997c-7.158 3.48-4.62 5.646-4.62 10.22l67.001 13.72c-4.62-6.86 0-11.434 4.62-11.434-26.079-3.949-49.148-8.077-67-12.506Z" fill="url(#f)"/><path d="M55.505 81.045 56.7 99.748l2.988-5.819 4.58 4.364-5.178-18.495-3.585 1.247Z" fill="url(#g)"/><path d="M64.409 78.317c-1.738 6.105-6.61 10.026-10.882 8.758-4.272-1.268-6.327-7.246-4.589-13.351 1.738-6.106 6.61-10.027 10.882-8.759 4.272 1.269 6.326 7.246 4.589 13.352Z" fill="url(#h)" fill-rule="evenodd"/><path d="M63.246 78.03c-1.463 5.141-5.565 8.443-9.163 7.375-3.597-1.068-5.327-6.101-3.864-11.242 1.463-5.142 5.566-8.444 9.163-7.376 3.597 1.068 5.327 6.102 3.864 11.243Z" fill="url(#i)" fill-rule="evenodd"/><path d="M61.347 67.829c-5.33 2.871-8.712 7.71-10.69 13.964 0 0-.991-12.84 10.69-13.965ZM45.767 86.78l-5.842 5.985 3.31-.886 2.532-5.098ZM55.804 88.775l.258 7.98 2.066-2.438-2.324-5.541Z" fill="#FFF" fill-opacity=".698"/><path d="M.974 6.982c.829-2.072 1.647-4.15 4.698-4.987l19.646 4.987c-8.115-.199-16.23-1.472-24.344 0Z" fill="#FFF"/><path d="M3.812 64.836c-1.386 6.165-4.528 12.121 2.832 19.32l9.91 1.627c-14.71-6.173-11-13.77-12.742-20.947Z" fill="#FFF" fill-opacity=".761"/><path d="m23.84 22.06-9.233.388.505 2.388 8.523-1.866 7.631 4.69 8.655-2.72 5.526 6.018 15.53.673 6.572 4.254.615.024-6.61-6.665-14.891 1.24-6.416-6.21-8.595.746-7.813-3.075v.114Z" fill="url(#j)"/><path d="m28.683 35.91-8.867 2.28-.34.255 8.769-.343c1.043 1.662 2.695 2.608 4.238 3.632 3.081.243 6.19.052 9.281.002 2.423.926 4.784 1.992 7.162 3.015l.146.068.22.067 9.122-1.184.012-.254-8.684.09c-1.997-.986-3.918-2.554-6.005-3.38-3.389-1.101-7.258.558-10.815.614l-4.237-4.385-.002-.478Z" fill="url(#k)"/><path d="M21.057 49.874 10.83 53.092l-.12.76 9.984-1.298 1.809 2.842 7.596-.161 8.102 5.36.749.251-7.983-8.048-7.427 2.012-2.484-4.936Z" fill="url(#l)"/></svg>