<svg width="278" height="251" xmlns="http://www.w3.org/2000/svg"><path d="M4 4h269.613v242.652H4V4Z" fill="none"/><g fill-rule="evenodd"><path d="M72.947 223.058c-3.09 7.361-24.718-3.101-24.718-3.101l2.013-4.06-3.575 3.516s-4.967-1.194-9.936-8.477c-2.816-4.127-3.531-8.957-3.531-8.957s9.588-4.723 15.614-2.401l-1.689 6.253 3.598-5.051s25.539 14.38 22.224 22.278Z" fill="#E1F3FC"/><path d="M72.023 221.998a2266.746 2266.746 0 0 0-18.313-9.903 969.054 969.054 0 0 0-9.195-4.86 424.359 424.359 0 0 0-4.622-2.373c-.778-.382-1.55-.773-2.33-1.146l-1.176-.549c-.392-.181-.804-.33-1.205-.495-.065-.027-.138.01-.162.085-.024.072.009.153.072.18l.02.01c.39.172.783.322 1.17.51l1.16.573c.77.388 1.535.796 2.303 1.194 1.528.816 3.054 1.637 4.575 2.473a972.305 972.305 0 0 1 9.103 5.06 2278.074 2278.074 0 0 1 18.127 10.305c.26.15.579.035.712-.258.133-.292.03-.65-.23-.8l-.01-.006Z" fill="#FFF"/><path d="M71.581 223.742c-8.049.591-10.676-28.78-10.676-28.78l4.607.013-4.98-2.02s-1.65-6.09 1.974-15.478c2.054-5.318 5.853-8.713 5.853-8.713s9.275 7.96 10.521 15.823l-6.33 1.529 6.32 1.214s1.346 35.778-7.289 36.412Z" fill="#CEE5F6"/><path d="M72 222.156c-.41-8.48-.844-16.958-1.319-25.433-.235-4.238-.487-8.475-.76-12.71a630.463 630.463 0 0 0-.442-6.352c-.09-1.058-.167-2.116-.267-3.174l-.16-1.586c-.055-.529-.15-1.06-.222-1.59-.012-.086-.084-.145-.161-.131-.076.013-.128.092-.118.177l.003.025c.062.522.144 1.034.19 1.56l.13 1.581c.082 1.056.14 2.115.212 3.172.119 2.117.232 4.234.33 6.353.198 4.238.375 8.478.536 12.718.326 8.48.61 16.965.87 25.448.011.366.283.652.609.64.325-.011.58-.318.57-.683l-.001-.015Z" fill="#FFF"/><g><path d="M71.747 223.493c-7.504 4.97-22.725-21.909-22.725-21.909l4.446-2.506-5.672.776s-4.223-4.97-4.784-16c-.317-6.25 1.878-11.6 1.878-11.6s12.38 2.603 16.979 9.502l-5.444 4.934 6.62-2.285s16.753 33.756 8.702 39.088Z" fill="#FFF"/><path d="M71.466 221.735a3325.224 3325.224 0 0 0-12.259-23.798c-2.058-3.957-4.13-7.904-6.224-11.838a625.212 625.212 0 0 0-3.17-5.881c-.543-.971-1.075-1.949-1.628-2.914l-.84-1.441c-.28-.48-.601-.94-.9-1.41-.05-.078-.144-.095-.212-.04a.185.185 0 0 0-.038.235l.014.023c.285.469.586.917.857 1.4l.81 1.453c.533.973 1.048 1.962 1.573 2.942a626.734 626.734 0 0 1 3.063 5.944c2.022 3.977 4.024 7.968 6.011 11.968a3350.037 3350.037 0 0 1 11.833 24.056c.168.347.554.475.863.285.308-.189.422-.624.253-.97a.42.42 0 0 1-.006-.014Z" fill="#E1F3FC"/></g></g><g fill-rule="evenodd"><path d="M75.382 198.859c-11.803-3.596-20.394-16.448-22.541-30.11-.183-1.163-1.777-.926-1.594.246 2.277 14.48 11.115 27.788 23.917 31.689 1 .303 1.205-1.525.218-1.825Z" fill="#004DA1"/><path d="M51.605 170.973s-.355-.151-.83-.46a9.977 9.977 0 0 1-1.655-1.322c-1.153-1.134-2.045-2.777-2.326-4.552-.283-1.778.054-3.674.794-5.2.374-.762.8-1.423 1.164-1.9.351-.474.64-.758.64-.758s.36.155.833.457c.485.302 1.08.753 1.662 1.32 1.157 1.138 2.045 2.783 2.317 4.56.271 1.779-.07 3.675-.807 5.202-.37.76-.793 1.419-1.153 1.892-.353.475-.64.761-.64.761Z" fill="#1943CF"/><path d="M56.12 181.556s-.269.312-.703.683a9.933 9.933 0 0 1-1.727 1.191c-1.375.746-3.05 1.011-4.579.581-1.531-.425-2.908-1.552-3.82-2.947a11.948 11.948 0 0 1-1.04-1.992c-.234-.56-.344-.977-.344-.977s.273-.315.704-.686a9.997 9.997 0 0 1 1.73-1.206c1.376-.746 3.05-1.005 4.576-.565 1.53.435 2.902 1.567 3.815 2.963.458.695.81 1.406 1.04 1.98.236.56.348.976.348.976ZM58.378 184.83s-.203-.368-.42-.94c-.225-.572-.461-1.34-.625-2.195-.326-1.703-.172-3.632.536-5.244.707-1.613 1.974-2.896 3.368-3.6a8.985 8.985 0 0 1 1.923-.714c.531-.133.914-.164.914-.164s.206.377.424.943c.227.575.467 1.346.633 2.201.326 1.707.166 3.633-.548 5.237-.717 1.608-1.988 2.885-3.38 3.594a9.115 9.115 0 0 1-1.915.718c-.531.133-.91.164-.91.164ZM65.944 194.782s-.204-.368-.419-.943a12.545 12.545 0 0 1-.628-2.196c-.324-1.702-.17-3.63.537-5.244.71-1.61 1.976-2.895 3.369-3.596a8.954 8.954 0 0 1 1.924-.716c.531-.135.912-.162.912-.162s.204.372.424.94c.229.578.467 1.348.634 2.2.326 1.708.167 3.635-.55 5.239-.714 1.607-1.986 2.887-3.376 3.594a9.052 9.052 0 0 1-1.918.716c-.53.135-.91.168-.91.168ZM62.754 192.957s-.269.31-.703.682a9.934 9.934 0 0 1-1.727 1.191c-1.375.746-3.05 1.011-4.578.581-1.532-.424-2.908-1.551-3.82-2.947a11.948 11.948 0 0 1-1.04-1.992 8.343 8.343 0 0 1-.345-.977s.273-.315.704-.686a9.99 9.99 0 0 1 1.73-1.206c1.377-.746 3.05-1.005 4.576-.564 1.53.434 2.902 1.567 3.815 2.963.459.694.81 1.406 1.04 1.98.236.558.348.975.348.975Z" fill="#004DA1"/></g><g fill-rule="evenodd"><path d="M225.016 229.677h-59.513c-3.723 0-6.743-3.254-6.743-7.267v-80.39c0-4.014 3.02-7.267 6.743-7.267h59.513c3.724 0 6.744 3.253 6.744 7.266v80.391c0 4.013-3.02 7.267-6.744 7.267Z" fill="#F6CC2F"/><path d="M231.76 140.487v83.443c0 3.18-2.381 5.747-5.333 5.747h-31.393v-94.924h31.393c2.952 0 5.333 2.565 5.333 5.734Z" fill="#FD3"/><path d="M200.186 132.373c0-3.064-2.307-5.55-5.15-5.55-2.845 0-5.15 2.486-5.15 5.55h-8.949c-.655 0-1.186.573-1.186 1.279V138c0 2.15 1.617 3.892 3.612 3.892h23.346c1.994 0 3.612-1.742 3.612-3.892v-4.35c0-.705-.531-1.278-1.188-1.278h-8.947Z" fill="#0075BD"/><path d="M179.992 153.282h-1.737c-.615 0-1.113-.537-1.113-1.199v-1.872c0-.9-.677-1.63-1.512-1.63h-3.296c-.836 0-1.513.73-1.513 1.63v1.872c0 .662-.498 1.199-1.112 1.199h-1.738c-.835 0-1.512.73-1.512 1.63v3.551c0 .9.677 1.63 1.512 1.63h1.738c.614 0 1.112.536 1.112 1.198v1.872c0 .9.677 1.63 1.513 1.63h3.296c.835 0 1.512-.73 1.512-1.63v-1.872c0-.662.498-1.198 1.113-1.198h1.737c.836 0 1.513-.73 1.513-1.63v-3.551c0-.9-.677-1.63-1.513-1.63ZM189.24 152.623h29.082c1.626 0 2.956 1.434 2.956 3.185v1.758c0 1.751-1.33 3.185-2.956 3.185h-29.081c-1.626 0-2.956-1.434-2.956-3.185v-1.758c0-1.751 1.33-3.185 2.956-3.185ZM169.934 175.914h50.202c1.105 0 2.008.974 2.008 2.164v.719c0 1.19-.903 2.164-2.008 2.164h-50.202c-1.104 0-2.008-.974-2.008-2.164v-.719c0-1.19.904-2.164 2.008-2.164ZM169.935 187.858h50.2c1.105 0 2.01.974 2.01 2.164v.72c0 1.19-.905 2.164-2.01 2.164h-50.2c-1.105 0-2.01-.974-2.01-2.165v-.719c0-1.19.905-2.164 2.01-2.164ZM169.935 200.646h50.2c1.105 0 2.01.974 2.01 2.164v.719c0 1.19-.905 2.164-2.01 2.164h-50.2c-1.105 0-2.01-.974-2.01-2.164v-.719c0-1.19.905-2.164 2.01-2.164ZM169.935 213.433h27.462c1.105 0 2.009.974 2.009 2.165v.718c0 1.19-.904 2.165-2.01 2.165h-27.461c-1.105 0-2.01-.974-2.01-2.165v-.718c0-1.19.905-2.165 2.01-2.165Z" fill="#F5A627"/></g><g fill-rule="evenodd"><path d="M199.555 211.53c-8.645 0-15.738 7.541-16.462 17.148h49.64c-1.518-5.664-6.397-9.81-12.183-9.81-2.454 0-4.746.748-6.687 2.04-2.858-5.607-8.195-9.378-14.308-9.378Z" fill="#CEE5F6"/><path d="M199.555 211.53c-5.205 0-9.845 2.734-12.874 7.005a25.103 25.103 0 0 0 2.7 1.562c5.778 2.893 14.019 4.493 22.177 5.175 7.924.663 15.769.46 19.21-.867-2.306-3.357-6.024-5.536-10.218-5.536-2.455 0-4.746.747-6.687 2.039-2.858-5.607-8.195-9.378-14.308-9.378Z" fill="#FFF"/><path d="M205.23 211.383c-.086 1.583.797 3.057.797 3.057s1.021-1.092 1.106-2.676c.085-1.583-.798-3.058-.798-3.058s-1.02 1.093-1.105 2.677Z" fill="#FFF"/><path d="M207.044 212.52c-1.058.91-1.29 2.548-1.29 2.548s1.482.167 2.54-.74c1.058-.909 1.29-2.548 1.29-2.548s-1.482-.167-2.54.74Z" fill="#FFF"/><path d="M220.498 224.273c.057 1.054-.53 2.036-.53 2.036s-.68-.727-.737-1.781c-.057-1.055.531-2.036.531-2.036s.68.727.736 1.781Z" fill="#CEE5F6"/><path d="M219.29 225.031c.705.605.86 1.696.86 1.696s-.988.112-1.692-.493-.86-1.696-.86-1.696.988-.111 1.692.493Z" fill="#CEE5F6"/></g><g fill-rule="evenodd"><path d="M177.863 228.914c5.118 7.215 27.248-10.075 27.248-10.075l-3.172-3.895 4.817 2.878s5.349-2.648 9.356-11.957c2.27-5.275 2.012-10.75 2.012-10.75s-11.878-2.572-18.175 1.596l3.29 6.382-5.181-4.551s-25.686 22.633-20.195 30.372Z" fill="#E1F3FC"/><path d="M178.673 227.506a2783.65 2783.65 0 0 1 18.507-15.782c3.095-2.616 6.2-5.219 9.319-7.802a522.856 522.856 0 0 1 4.699-3.845c.794-.627 1.58-1.264 2.38-1.883l1.207-.918c.403-.305.836-.578 1.253-.868a.14.14 0 0 1 .201.049.168.168 0 0 1-.041.218l-.02.014c-.403.294-.814.564-1.21.876l-1.184.94c-.786.632-1.56 1.285-2.34 1.927a523.73 523.73 0 0 0-4.623 3.943c-3.07 2.647-6.125 5.314-9.17 7.996a2805.153 2805.153 0 0 0-18.21 16.17.578.578 0 0 1-.86-.089.707.707 0 0 1 .092-.946Z" fill="#FFF"/><path d="M179.557 229.294c9.227-1.53 5.709-34.361 5.709-34.361l-5.203 1.26 5.182-3.555s.52-7.108-5.65-16.393c-3.494-5.26-8.537-7.946-8.537-7.946s-8.724 11.213-8.396 20.149l7.492-.04-6.875 3.037s6.38 39.49 16.278 37.849Z" fill="#CEE5F6"/><path d="M178.734 227.672a3604.635 3604.635 0 0 1-4.127-28.17c-.67-4.698-1.32-9.4-1.947-14.105a677.702 677.702 0 0 1-.904-7.066c-.132-1.181-.277-2.36-.398-3.542l-.17-1.778c-.055-.593-.065-1.2-.1-1.798-.005-.098.063-.182.153-.188.088-.006.165.066.172.162l.003.028c.045.587.065 1.17.13 1.757l.2 1.765c.143 1.176.31 2.35.463 3.525.333 2.347.673 4.693 1.03 7.037.711 4.688 1.448 9.373 2.202 14.054a3587.646 3587.646 0 0 0 4.636 28.064c.07.403-.175.79-.546.865-.37.075-.726-.191-.794-.594l-.003-.016Z" fill="#FFF"/><g><path d="M179.314 229.066c9.578 3.406 20.843-30.105 20.843-30.105l-5.578-1.538 6.582-.686s3.674-6.576 1.872-18.791c-1.02-6.92-4.683-12.178-4.683-12.178s-13.416 6.195-17.089 14.983l7.24 3.925-7.983-.71s-11.479 41.447-1.204 45.1Z" fill="#FFF"/><path d="M179.245 227.068a3837.18 3837.18 0 0 1 8.597-29.34 1636.43 1636.43 0 0 1 4.42-14.63 718.592 718.592 0 0 1 2.283-7.289c.4-1.208.785-2.421 1.197-3.626l.63-1.803c.212-.601.472-1.192.706-1.787.039-.097.142-.142.231-.1.088.04.13.15.094.247l-.01.029c-.218.59-.46 1.162-.66 1.763l-.593 1.807c-.388 1.209-.751 2.429-1.128 3.643a720.487 720.487 0 0 0-2.149 7.33 1637.51 1637.51 0 0 0-4.15 14.712 3832.428 3832.428 0 0 0-8.06 29.508c-.113.425-.522.67-.912.545-.39-.123-.614-.568-.5-.993l.004-.016Z" fill="#E1F3FC"/></g></g><path d="m127.78 163.572-3.75 1.356c-1.013.368-2.493-.23-3.233-1.294a33.795 33.795 0 0 0-2.215-2.865c-.835-.966-1.131-2.679-.65-3.736l1.802-3.934c1.263-2.754.273-6.14-2.205-7.544l-5.74-3.249a4.548 4.548 0 0 0-3.842-.335c-1.284.463-2.324 1.451-2.936 2.787l-1.798 3.933c-.288.634-.92 1.175-1.688 1.454-.478.172-.964.231-1.41.161a28.227 28.227 0 0 0-3.389-.31c-1.213-.036-2.515-1.024-2.844-2.148l-1.219-4.171c-.86-2.939-3.708-4.552-6.352-3.596l-6.125 2.215c-2.643.956-4.094 4.126-3.235 7.066l1.218 4.169c.33 1.126-.203 2.777-1.163 3.599-.891.761-1.76 1.592-2.578 2.462a3.206 3.206 0 0 1-1.224.792c-.77.279-1.569.251-2.137-.073l-3.529-1.997c-1.2-.681-2.567-.802-3.846-.339-1.283.465-2.324 1.456-2.935 2.791l-2.924 6.388a6.137 6.137 0 0 0-.303 4.279c.415 1.421 1.305 2.58 2.504 3.261l3.535 2.004c.952.538 1.619 2.118 1.456 3.444a37.77 37.77 0 0 0-.277 3.768c-.034 1.343-.919 2.795-1.933 3.163l-3.748 1.354c-2.642.957-4.092 4.125-3.233 7.065l1.993 6.819c.86 2.941 3.708 4.554 6.35 3.598l3.748-1.355c1.015-.367 2.495.221 3.235 1.293.683.989 1.43 1.951 2.215 2.862.833.966 1.128 2.68.645 3.738l-1.802 3.934c-1.258 2.755-.27 6.138 2.205 7.543l5.746 3.255c1.203.678 2.567.801 3.85.336 1.279-.461 2.32-1.453 2.931-2.79l1.8-3.932c.291-.63.923-1.177 1.69-1.454.477-.172.965-.232 1.407-.161 1.122.17 2.263.273 3.385.307 1.21.038 2.514 1.019 2.844 2.15l1.218 4.168c.86 2.94 3.71 4.553 6.353 3.599l6.124-2.217c2.644-.956 4.097-4.126 3.237-7.066l-1.218-4.169c-.33-1.13.2-2.776 1.162-3.599a32.139 32.139 0 0 0 2.578-2.464c.315-.339.752-.62 1.22-.789.773-.279 1.572-.252 2.14.069l3.535 2.003c1.199.681 2.564.802 3.847.337 1.279-.462 2.319-1.453 2.93-2.788l2.923-6.392c1.26-2.755.27-6.138-2.205-7.543l-3.531-2c-.951-.54-1.618-2.119-1.452-3.447.154-1.246.247-2.516.274-3.766.034-1.348.918-2.796 1.933-3.163l3.747-1.355c2.643-.956 4.094-4.126 3.235-7.066l-1.992-6.814c-.862-2.943-3.712-4.556-6.354-3.601Zm-17.754 16.084c2.519 8.616-1.733 17.912-9.478 20.713-7.75 2.803-16.1-1.933-18.618-10.549-2.518-8.615 1.732-17.905 9.482-20.709 7.745-2.801 16.096 1.93 18.614 10.545Z" fill="#FD3" fill-rule="evenodd"/><path d="M64.347 137.808C67.162 93.921 99.935 59.92 139.42 59.92c35.96 0 66.897 28.344 73.847 67.659" fill="none" stroke="#FFF" stroke-width="8" stroke-linecap="round" stroke-linejoin="round" stroke-dasharray="15.9999 23.9998"/><g fill-rule="evenodd"><path d="M96.953 84.884c6.72 0 12.167-5.812 12.167-12.981 0-7.17-5.447-12.982-12.167-12.982s-12.166 5.812-12.166 12.982c0 7.169 5.447 12.981 12.166 12.981Z" fill="#1943CF"/><path d="M99.504 66.791c-1.068.172-1.986.833-2.55 1.761-.702-1.154-1.951-1.895-3.357-1.796-1.146.08-2.188.777-2.828 1.794-2.69 4.27 4.108 9.75 5.81 11.025.226.17.523.168.748-.003 1.693-1.287 8.448-6.796 5.843-10.92-.823-1.3-2.211-2.095-3.666-1.86Z" fill="#FD3"/><g fill="#004DA1"><path d="M97.47 75.447h-1.034c-.18 0-.327-.156-.327-.35v-3.746c0-.193.146-.35.327-.35h1.034c.181 0 .328.157.328.35v3.747c0 .193-.147.35-.328.35Z"/><path d="M94.87 73.776v-1.103c0-.193.147-.35.328-.35h3.511c.18 0 .328.157.328.35v1.103c0 .193-.147.35-.328.35h-3.511c-.181 0-.328-.157-.328-.35Z"/></g></g><g fill-rule="evenodd"><path d="M150.644 70.097c-4.169-4.448-4.68-11.319-1.534-16.36a12.66 12.66 0 0 1 1.534-1.998c1.615-1.723 3.57-2.861 5.636-3.413.124-.032.249-.063.373-.093 3.91-.905 8.157.263 11.197 3.507 4.75 5.068 4.752 13.287 0 18.357-4.752 5.07-12.454 5.07-17.206 0Z" fill="#1943CF"/><path d="M154.703 56.48h9.116v9.728h-9.116v-9.727Z" fill="#FD3"/><path d="M159.26 63.54v-.005l-.058.002-.059-.002v.005c-1.266.06-1.314 1.068-.956 1.537.305.4.083 1.02.075 1.256-.001.05-.004.08-.004.08l.903.183c-.005.02-.01.028-.018.02l.059-.012.059.012c-.007.008-.013 0-.019-.02l.904-.184s-.003-.029-.004-.079c-.008-.237-.23-.857.075-1.256.358-.47.31-1.476-.956-1.537Z" fill="#004DA1"/><path d="M166.001 61.407h.005l-.002-.063.002-.062h-.005c-.056-1.351-1-1.403-1.44-1.02-.374.325-.956.088-1.177.08a2.11 2.11 0 0 1-.075-.004l-.172.963c-.018-.006-.026-.011-.018-.02l.01.063-.01.063c-.008-.008 0-.014.018-.02l.172.964.075-.004c.222-.008.803-.245 1.177.08.44.383 1.384.33 1.44-1.02ZM152.492 61.407h-.006c0-.022.003-.04.003-.063 0-.021-.003-.04-.003-.062h.006c.056-1.351 1-1.403 1.44-1.02.374.325.955.088 1.177.08l.074-.004.172.963c.019-.006.027-.011.02-.02l-.012.063.011.063c.008-.008 0-.014-.019-.02l-.172.964-.074-.004c-.222-.008-.803-.245-1.177.08-.44.383-1.384.33-1.44-1.02Z" fill="#F5A627"/><path d="M159.26 58.77v.006c-.02 0-.038-.002-.058-.003-.02 0-.038.003-.059.003v-.006c-1.266-.06-1.314-1.067-.956-1.536.305-.4.083-1.02.075-1.257-.001-.05-.004-.079-.004-.079l.903-.183c-.005-.02-.01-.028-.018-.02l.059.012.059-.012c-.007-.008-.013 0-.019.02l.904.183s-.003.03-.004.08c-.008.236-.23.857.075 1.256.358.47.31 1.476-.956 1.536Z" fill="#004DA1"/></g><g fill-rule="evenodd"><path d="M213.596 91.682c4.169 4.448 4.68 11.32 1.535 16.36a12.677 12.677 0 0 1-1.535 1.998c-1.615 1.724-3.57 2.86-5.636 3.412-.124.034-.249.064-.373.094-3.91.906-8.157-.262-11.197-3.506-4.751-5.069-4.751-13.289 0-18.358 4.751-5.07 12.454-5.07 17.206 0Z" fill="#1943CF"/><g fill="#FD3"><path d="M201.77 104.178c0 .581-.44 1.053-.986 1.053-.544 0-.986-.472-.986-1.053v-5.806c0-.581.442-1.053.986-1.053.545 0 .987.472.987 1.053v5.806Z"/><path d="M200.355 102.905c0 .562-.428 1.018-.955 1.018-.527 0-.955-.456-.955-1.018v-3.26c0-.563.428-1.019.955-1.019.527 0 .955.456.955 1.019v3.26ZM207.563 104.178c0 .581.442 1.053.986 1.053.545 0 .987-.472.987-1.053v-5.806c0-.581-.442-1.053-.987-1.053-.544 0-.986.472-.986 1.053v5.806Z"/><path d="M208.979 102.905c0 .562.427 1.018.955 1.018.527 0 .954-.456.954-1.018v-3.26c0-.563-.427-1.019-.954-1.019-.528 0-.955.456-.955 1.019v3.26ZM201.596 100.052h6.325v2.445h-6.325v-2.445Z"/></g></g><g fill-rule="evenodd"><path d="M65.807 138.807c6.719 0 12.166-5.812 12.166-12.982 0-7.17-5.447-12.981-12.166-12.981-6.72 0-12.167 5.812-12.167 12.981 0 7.17 5.447 12.982 12.167 12.982Z" fill="#1943CF"/><path d="M71.892 119.001h-7.273l-3.685 5.556h3.81l-5.022 8.093 12.121-9.778h-2.781l2.83-3.871Z" fill="#FD3"/></g><path d="M215.474 122.562a2.545 2.545 0 0 1 0 3.531c-.323.331-.714.55-1.127.656l-.075.018a2.392 2.392 0 0 1-2.24-.674 2.543 2.543 0 0 1 0-3.531 2.39 2.39 0 0 1 3.442 0Z" fill="#FFF" fill-rule="evenodd"/><g fill-rule="evenodd"><path d="M78.159 215.696h-7.031c-1.693 0-3.064 1.516-3.064 3.385v2.131c0 1.87 1.371 3.384 3.064 3.384h7.031c1.692 0 3.064-1.515 3.064-3.384v-2.131c0-1.87-1.372-3.385-3.064-3.385Zm.762 5.516c0 .464-.342.842-.762.842h-7.031c-.42 0-.762-.378-.762-.842v-2.13c0-.465.342-.843.762-.843h7.031c.42 0 .762.378.762.842v2.131Z" fill="#004DA1"/><path d="M88.542 246.652h-27.95c-1.69 0-3.059-1.513-3.059-3.379v-19.748c0-1.866 1.37-3.379 3.059-3.379h27.95c1.689 0 3.058 1.513 3.058 3.38v19.747c0 1.866-1.37 3.379-3.058 3.379Z" fill="#FFF"/><path d="M88.287 220.146H74.643v26.506h13.644c1.83 0 3.313-1.638 3.313-3.66v-19.186c0-2.02-1.483-3.66-3.313-3.66Z" fill="#E1F3FC"/><path d="M80.544 229.927h-1.728c-.61 0-1.106-.548-1.106-1.222v-1.91c0-.917-.674-1.661-1.505-1.661h-3.277c-.831 0-1.505.744-1.505 1.662v1.909c0 .674-.495 1.222-1.106 1.222h-1.728c-.831 0-1.505.744-1.505 1.662v3.62c0 .919.674 1.663 1.505 1.663h1.728c.611 0 1.106.547 1.106 1.222v1.909c0 .918.674 1.662 1.505 1.662h3.277c.831 0 1.505-.744 1.505-1.662v-1.91c0-.674.495-1.221 1.106-1.221h1.728c.831 0 1.505-.744 1.505-1.662v-3.621c0-.918-.674-1.662-1.505-1.662Z" fill="#FD3"/></g><g fill="#0075BD" fill-rule="evenodd"><path d="M175.243 227.957c12.492.176 24.043-9.469 29.44-21.858.46-1.055 1.974-.34 1.511.722-5.722 13.13-17.626 23.136-31.175 22.946-1.058-.016-.82-1.825.224-1.81Z"/><path d="M205.367 208.6s.386-.035.929-.185a9.44 9.44 0 0 0 1.947-.756 7.583 7.583 0 0 0 3.386-3.636c.705-1.61.829-3.525.466-5.207a12.264 12.264 0 0 0-.69-2.17c-.232-.56-.448-.92-.448-.92s-.393.036-.93.181a9.56 9.56 0 0 0-1.956.752 7.518 7.518 0 0 0-3.377 3.646c-.695 1.616-.814 3.531-.455 5.214.181.838.44 1.598.681 2.16.234.56.447.922.447.922ZM198.377 217.326s.19.38.528.867c.343.496.824 1.098 1.415 1.665 1.176 1.133 2.761 1.899 4.371 1.956 1.611.063 3.238-.592 4.472-1.646a10.81 10.81 0 0 0 1.503-1.584c.366-.464.574-.828.574-.828s-.193-.385-.528-.87a11.135 11.135 0 0 0-1.415-1.682c-1.177-1.133-2.763-1.892-4.373-1.938-1.611-.053-3.235.609-4.47 1.662a10.316 10.316 0 0 0-1.5 1.573 7.536 7.536 0 0 0-.577.825ZM195.366 219.761s.288-.289.64-.769c.358-.477.776-1.139 1.142-1.905.73-1.526 1.042-3.415.732-5.17a8.067 8.067 0 0 0-2.453-4.47 10.08 10.08 0 0 0-1.724-1.27 6.9 6.9 0 0 0-.86-.435s-.294.296-.644.77c-.362.48-.784 1.143-1.153 1.909-.73 1.53-1.036 3.418-.718 5.168a8.187 8.187 0 0 0 2.466 4.466c.6.551 1.217.98 1.715 1.272.49.289.857.434.857.434ZM185.52 226.95s.29-.288.64-.771c.358-.479.78-1.136 1.146-1.906.728-1.525 1.04-3.413.73-5.171a8.077 8.077 0 0 0-2.454-4.465 10.032 10.032 0 0 0-1.724-1.272c-.49-.291-.86-.433-.86-.433s-.29.293-.642.767a11.676 11.676 0 0 0-1.154 1.907c-.73 1.531-1.037 3.42-.716 5.171a8.164 8.164 0 0 0 2.462 4.465c.601.552 1.22.981 1.717 1.27.49.291.856.439.856.439ZM189.102 226.183s.19.38.529.867c.342.496.824 1.099 1.414 1.666 1.176 1.132 2.762 1.898 4.372 1.955 1.61.063 3.237-.592 4.471-1.646a10.805 10.805 0 0 0 1.504-1.584c.365-.464.574-.828.574-.828s-.194-.384-.529-.87a11.14 11.14 0 0 0-1.415-1.681c-1.177-1.133-2.763-1.893-4.373-1.939-1.61-.053-3.235.609-4.47 1.663a10.327 10.327 0 0 0-1.5 1.572c-.367.462-.577.825-.577.825Z"/></g><g fill="#004DA1" fill-rule="evenodd"><path d="M173.638 228.336c7.567-6.004 10.76-17.575 9.195-27.818-.133-.873 1.052-1.175 1.187-.297 1.658 10.857-1.607 22.822-9.815 29.335-.64.507-1.2-.719-.567-1.22Z"/><path d="M183.799 201.767s.19-.227.417-.6c.231-.37.497-.875.72-1.458.442-1.155.57-2.547.262-3.804a5.79 5.79 0 0 0-1.966-3.096 7.115 7.115 0 0 0-1.292-.816c-.363-.181-.632-.262-.632-.262s-.194.231-.42.599c-.235.371-.5.88-.725 1.46-.443 1.159-.57 2.55-.254 3.805a5.882 5.882 0 0 0 1.975 3.094c.454.36.916.636 1.283.814.364.181.632.264.632.264ZM183.774 210.287s.263.105.651.19c.395.087.908.158 1.466.15a4.759 4.759 0 0 0 3.168-1.277c.888-.83 1.479-2.061 1.69-3.3a9.382 9.382 0 0 0 .13-1.672c-.002-.45-.045-.76-.045-.76s-.267-.107-.653-.192a6.542 6.542 0 0 0-1.472-.16 4.717 4.717 0 0 0-3.162 1.288c-.884.836-1.47 2.07-1.683 3.308a8.982 8.982 0 0 0-.09 2.425ZM183.2 213.234s.032-.313.016-.764a9.408 9.408 0 0 0-.2-1.654c-.26-1.226-.896-2.426-1.81-3.219a4.658 4.658 0 0 0-3.212-1.125 6.397 6.397 0 0 0-1.462.231c-.385.106-.645.224-.645.224s-.031.32-.017.767c.011.456.068 1.045.196 1.661.26 1.229.9 2.424 1.815 3.21a4.727 4.727 0 0 0 3.218 1.117 6.494 6.494 0 0 0 1.458-.226c.386-.105.644-.222.644-.222ZM180.997 222.446s.032-.313.013-.764a9.264 9.264 0 0 0-.198-1.657c-.26-1.224-.896-2.424-1.81-3.218a4.663 4.663 0 0 0-3.211-1.122 6.375 6.375 0 0 0-1.463.23c-.387.104-.644.224-.644.224s-.03.316-.017.764c.01.46.067 1.047.195 1.662.26 1.23.9 2.426 1.817 3.21a4.713 4.713 0 0 0 3.215 1.119 6.429 6.429 0 0 0 1.459-.228c.385-.103.644-.22.644-.22ZM182.004 219.156s.25.141.625.28a6.63 6.63 0 0 0 1.437.357 4.63 4.63 0 0 0 3.284-.82c.972-.698 1.694-1.836 2.04-3.034a9.28 9.28 0 0 0 .311-1.641c.048-.447.039-.762.039-.762s-.254-.142-.627-.282a6.667 6.667 0 0 0-1.443-.366 4.593 4.593 0 0 0-3.279.83c-.968.705-1.686 1.846-2.032 3.045a8.864 8.864 0 0 0-.314 1.632c-.05.446-.041.761-.041.761Z"/></g><g fill-rule="evenodd"><path d="M177.075 231.607c3.144-.194 1.618-2.432.17-5.907-11.76-28.192 2.246-50.916 4.54-54.096a59.241 59.241 0 0 0 7.908-15.27c1.765-5.104 2.795-10.323 3.077-15.39.451-13.13-1.785-23.988-7.05-32.866-10.806-18.213-25.933-26.51-43.518-28.052a36.13 36.13 0 0 0-4.927-.09v.045h-.096v-.042c-.233.012-.466.026-.699.042-7.004.492-13.821 2.944-20.372 6.607-1.82 1.017-3.61 2.13-5.383 3.275-12.444 8.039-19.368 20.381-18.78 38.465.328 10.15-3.633 17.536-9.486 23.745-1.058 1.122-2.11 2.239-2.976 3.585-.114.178-.225.36-.332.547-.062.108-.126.212-.186.323-1.61 3-1.278 5.231 1.124 7.12 1.54 1.21 3.164 2.25 4.511 3.818 2.057 2.396 2.19 3.81.62 6.772-1.768 3.336-1.758 3.472.958 5.841.729.637 1.5 1.115.477 2.32-1.507 1.77-.968 3.497.33 4.788 1.82 1.811 2.095 4.135 1.753 6.733-.299 2.266-.739 4.504-1.11 6.756-1.004 6.076.393 8.896 5.206 10.493 5.024 1.666 10.023.223 15.033-.329 3.357-.37 6.663-1.702 10.1-.732 2.23.63 3.46 2.185 3.747 5.034.418 4.155 1.502 8.125 2.122 12.213.505 3.334 1.778 4.376 4.41 4.241 1.387-.07 3.148-.118 5.174-.148h15.09c4.974.041 10.08.103 14.601.152 6.754.074 12.206.116 13.964.007Z" fill="#1943CF" fill-opacity=".7"/><path d="M160.59 136.141h-6.559c-2.318 0-4.198-2.144-4.198-4.79v-7.48c0-3.597-2.557-6.513-5.71-6.513h-12.441c-3.154 0-5.71 2.916-5.71 6.513v7.48c0 2.646-1.88 4.79-4.2 4.79h-6.558c-3.154 0-5.71 2.916-5.71 6.513v14.19c0 3.598 2.556 6.514 5.71 6.514h6.558c2.32 0 4.2 2.144 4.2 4.79v7.48c0 3.597 2.556 6.513 5.71 6.513h12.44c3.154 0 5.71-2.916 5.71-6.513v-7.48c0-2.646 1.88-4.79 4.2-4.79h6.558c3.154 0 5.71-2.916 5.71-6.513v-14.191c0-3.597-2.556-6.513-5.71-6.513Z" fill="#FD3"/></g><path d="M112.634 241.659c4.063 0 7.73 1.915 10.337 4.993 1.076-1.27 2.59-2.062 4.268-2.062 1.677 0 3.19.792 4.268 2.062H85.76c2.086-2.462 5.02-3.994 8.27-3.994 3.249 0 6.183 1.532 8.268 3.994 2.607-3.078 6.274-4.993 10.336-4.993ZM162.293 234.669c-2.436 0-4.636.383-6.2.999-.645-.254-1.553-.413-2.56-.413-1.006 0-1.914.159-2.56.413h17.52c-1.564-.616-3.763-.999-6.2-.999ZM192.273 242.658c2.843 0 5.409 1.532 7.234 3.994.753-1.016 1.813-1.649 2.986-1.649 1.174 0 2.234.633 2.987 1.649h-20.44c1.824-2.462 4.39-3.994 7.233-3.994Z" fill="#006AB5" fill-rule="evenodd"/><path d="M203.047 68.907c3.24 0 3.247-4.993 0-4.993-3.242 0-3.247 4.993 0 4.993Z" fill="#FD3" fill-rule="evenodd"/><path d="M208.887 68.907c3.24 0 3.247-4.993 0-4.993-3.242 0-3.248 4.993 0 4.993ZM197.207 68.907c3.24 0 3.247-4.993 0-4.993-3.242 0-3.247 4.993 0 4.993Z" fill="#FD3" fill-rule="evenodd"/><path d="M197.207 63.914c3.24 0 3.247-4.993 0-4.993-3.242 0-3.247 4.993 0 4.993Z" fill="#004DA1" fill-rule="evenodd"/><path d="M203.047 63.914c3.24 0 3.247-4.993 0-4.993-3.242 0-3.248 4.993 0 4.993ZM189.42 63.914c3.242 0 3.247-4.993 0-4.993-3.242 0-3.247 4.993 0 4.993Z" fill="#004DA1" fill-rule="evenodd"/><path d="M54.127 87.88c3.241 0 3.247-4.993 0-4.993-3.242 0-3.248 4.993 0 4.993Z" fill="#1943CF" fill-rule="evenodd"/><path d="M58.993 87.88c3.242 0 3.247-4.993 0-4.993-3.241 0-3.247 4.993 0 4.993Z" fill="#1943CF" fill-rule="evenodd"/></svg>